<?xml version="1.0" standalone="no"?>
<!DOCTYPE svg PUBLIC "-//W3C//DTD SVG 20010904//EN"
 "http://www.w3.org/TR/2001/REC-SVG-20010904/DTD/svg10.dtd">
<svg version="1.0" xmlns="http://www.w3.org/2000/svg"
 width="284.000000pt" height="177.000000pt" viewBox="0 0 284.000000 177.000000"
 preserveAspectRatio="xMidYMid meet">

<g transform="translate(0.000000,177.000000) scale(0.100000,-0.100000)"
fill="#000000" stroke="none">
<path d="M0 885 l0 -885 1420 0 1420 0 0 885 0 885 -1420 0 -1420 0 0 -885z
m1441 444 l12 -115 51 -25 c28 -13 54 -25 57 -27 3 -1 25 13 49 33 23 19 44
35 47 35 3 0 -11 -20 -31 -44 l-36 -44 38 -27 c20 -16 53 -43 73 -62 l35 -34
47 42 c26 22 47 38 47 34 0 -15 -89 -135 -139 -189 -31 -32 -98 -92 -148 -133
-85 -67 -108 -93 -85 -93 22 0 163 111 257 202 l104 100 -14 -43 c-9 -24 -41
-78 -73 -120 -101 -133 -92 -126 -137 -121 -33 3 -49 -2 -90 -31 -31 -21 -51
-43 -53 -57 -4 -21 -1 -22 32 -17 l36 6 -26 -34 c-14 -19 -36 -67 -49 -106
-12 -39 -25 -68 -27 -63 -3 5 -13 34 -22 65 -8 30 -27 72 -41 93 -14 20 -25
38 -25 40 0 1 14 0 31 -2 28 -4 30 -2 27 19 -2 16 -21 36 -53 57 -41 28 -57
33 -88 29 -36 -5 -39 -3 -92 62 -64 79 -125 178 -125 202 0 11 27 -11 73 -58
69 -72 257 -223 277 -223 25 0 3 25 -87 98 -135 110 -225 208 -269 295 -15 29
-14 28 36 -14 42 -36 53 -41 60 -28 5 8 36 37 69 63 l61 49 -36 44 c-19 23
-31 43 -26 43 5 0 15 -7 22 -15 7 -9 26 -25 41 -35 l27 -20 60 30 59 29 5 105
c5 93 13 134 24 124 2 -2 8 -56 15 -119z"/>
<path d="M1351 1129 l-24 -9 23 -25 c34 -36 51 -32 48 10 -2 37 -8 40 -47 24z"/>
<path d="M1450 1098 l0 -43 32 32 c35 36 35 37 -4 47 -27 6 -28 5 -28 -36z"/>
<path d="M1192 1058 c-34 -24 -62 -48 -62 -55 0 -15 148 -133 210 -167 27 -14
51 -22 54 -18 7 12 -64 115 -117 170 -25 25 -35 42 -26 42 19 0 88 -37 118
-64 37 -33 21 1 -35 73 -26 34 -55 61 -64 61 -9 0 -44 -19 -78 -42z"/>
<path d="M1502 1032 c-55 -72 -67 -99 -29 -65 27 25 105 65 117 61 5 -2 -9
-22 -31 -45 -49 -52 -109 -140 -109 -160 0 -22 106 40 196 116 l76 64 -28 23
c-41 33 -110 74 -126 74 -8 0 -37 -31 -66 -68z"/>
</g>
</svg>
